<svg xmlns="http://www.w3.org/2000/svg" version="1.1" xmlns:xlink="http://www.w3.org/1999/xlink" xmlns:svgjs="http://svgjs.com/svgjs" width="1440" height="560" preserveAspectRatio="none" viewBox="0 0 1440 560"><g mask="url(&quot;#SvgjsMask1000&quot;)" fill="none"><rect width="1440" height="560" x="0" y="0" fill="#0e2a47"></rect><path d="M0,341.513C69.804,338.862,138.577,342.047,203.877,317.238C281.042,287.922,363.404,255.749,408.213,186.424C455.276,113.611,473.071,18.977,450.821,-64.818C429.32,-145.793,358.916,-202.787,291.616,-252.687C234.415,-295.099,164.964,-309.117,96.231,-327.731C29.029,-345.931,-36.35,-365.242,-105.798,-360.315C-188.925,-354.418,-289.249,-360.874,-342.317,-296.62C-395.496,-232.231,-359.086,-135.339,-360.569,-51.842C-361.851,20.315,-376.096,92.587,-350.429,160.036C-323.768,230.098,-280.645,298.641,-214.079,333.114C-149.353,366.634,-72.838,344.28,0,341.513" fill="#0b2239"></path><path d="M1440 901.8969999999999C1516.044 911.633 1592.567 934.9839999999999 1665.177 910.3820000000001 1747.717 882.4159999999999 1845.061 839.845 1869.789 756.278 1894.926 671.33 1820.511 591.09 1783.47 510.616 1756.462 451.93899999999996 1724.379 399.048 1682.661 349.733 1640.455 299.842 1599.4 247.514 1539.263 221.94099999999997 1474.9470000000001 194.591 1403.77 190.34300000000002 1334.828 201.817 1259.5529999999999 214.344 1187.455 241.55900000000003 1128.712 290.267 1062.954 344.791 986.15 408.85 982.225 494.182 978.296 579.604 1058.7060000000001 642.103 1109.3600000000001 710.998 1150.1 766.409 1189.499 822.719 1249.06 857.108 1306.846 890.472 1373.814 893.424 1440 901.8969999999999" fill="#113255"></path></g><defs><mask id="SvgjsMask1000"><rect width="1440" height="560" fill="#ffffff"></rect></mask></defs></svg>